<?xml version="1.0" encoding="UTF-8" standalone="no"?>
<!-- Created with Inkscape (http://www.inkscape.org/) -->

<svg
   width="20.074955mm"
   height="77.721725mm"
   viewBox="0 0 20.074955 77.721725"
   version="1.1"
   id="svg1"
   inkscape:version="1.4 (e7c3feb1, 2024-10-09)"
   sodipodi:docname="soil_profile.svg"
   inkscape:export-filename="soil_profile.png"
   inkscape:export-xdpi="300"
   inkscape:export-ydpi="300"
   xmlns:inkscape="http://www.inkscape.org/namespaces/inkscape"
   xmlns:sodipodi="http://sodipodi.sourceforge.net/DTD/sodipodi-0.dtd"
   xmlns="http://www.w3.org/2000/svg"
   xmlns:svg="http://www.w3.org/2000/svg">
  <sodipodi:namedview
     id="namedview1"
     pagecolor="#ffffff"
     bordercolor="#000000"
     borderopacity="0.25"
     inkscape:showpageshadow="2"
     inkscape:pageopacity="0.0"
     inkscape:pagecheckerboard="0"
     inkscape:deskcolor="#d1d1d1"
     inkscape:document-units="mm"
     inkscape:zoom="0.78216891"
     inkscape:cx="100.36195"
     inkscape:cy="143.19158"
     inkscape:window-width="1200"
     inkscape:window-height="1027"
     inkscape:window-x="0"
     inkscape:window-y="25"
     inkscape:window-maximized="0"
     inkscape:current-layer="layer1" />
  <defs
     id="defs1">
    <mask
       maskUnits="userSpaceOnUse"
       id="mask57">
      <rect
         style="fill:#bfb290;fill-opacity:1;stroke:#1f2322;stroke-width:0.364796;stroke-miterlimit:0;paint-order:fill markers stroke"
         id="rect57"
         width="55.994438"
         height="70.53508"
         x="25.17621"
         y="176.70764" />
    </mask>
    <mask
       maskUnits="userSpaceOnUse"
       id="mask56">
      <rect
         style="fill:#bfb290;fill-opacity:1;stroke:#1f2322;stroke-width:0.364796;stroke-miterlimit:0;paint-order:fill markers stroke"
         id="rect56"
         width="55.994438"
         height="70.53508"
         x="25.17621"
         y="176.70764" />
    </mask>
    <mask
       maskUnits="userSpaceOnUse"
       id="mask55">
      <rect
         style="fill:#bfb290;fill-opacity:1;stroke:#1f2322;stroke-width:0.364796;stroke-miterlimit:0;paint-order:fill markers stroke"
         id="rect55"
         width="55.994438"
         height="70.53508"
         x="25.17621"
         y="176.70764" />
    </mask>
    <mask
       maskUnits="userSpaceOnUse"
       id="mask54">
      <rect
         style="fill:#bfb290;fill-opacity:1;stroke:#1f2322;stroke-width:0.364796;stroke-miterlimit:0;paint-order:fill markers stroke"
         id="rect54"
         width="55.994438"
         height="70.53508"
         x="25.17621"
         y="176.70764" />
    </mask>
    <marker
       style="overflow:visible"
       id="Triangle"
       refX="0"
       refY="0"
       orient="auto-start-reverse"
       inkscape:stockid="Triangle arrow"
       markerWidth="1"
       markerHeight="1"
       viewBox="0 0 1 1"
       inkscape:isstock="true"
       inkscape:collect="always"
       preserveAspectRatio="xMidYMid">
      <path
         transform="scale(0.5)"
         style="fill:context-stroke;fill-rule:evenodd;stroke:context-stroke;stroke-width:1pt"
         d="M 5.77,0 -2.88,5 V -5 Z"
         id="path135" />
    </marker>
    <inkscape:path-effect
       effect="spiro"
       id="path-effect399"
       is_visible="true"
       lpeversion="1" />
    <marker
       style="overflow:visible"
       id="marker401"
       refX="0"
       refY="0"
       orient="auto-start-reverse"
       inkscape:stockid="Triangle arrow"
       markerWidth="1"
       markerHeight="1"
       viewBox="0 0 1 1"
       inkscape:isstock="true"
       inkscape:collect="always"
       preserveAspectRatio="xMidYMid">
      <path
         transform="scale(0.5)"
         style="fill:context-stroke;fill-rule:evenodd;stroke:context-stroke;stroke-width:1pt"
         d="M 5.77,0 -2.88,5 V -5 Z"
         id="path401" />
    </marker>
    <inkscape:path-effect
       effect="spiro"
       id="path-effect400"
       is_visible="true"
       lpeversion="1" />
  </defs>
  <g
     inkscape:label="Layer 1"
     inkscape:groupmode="layer"
     id="layer1"
     transform="translate(-87.92051,-111.39259)">
    <g
       fill="#231f20"
       fill-opacity="1"
       id="g105"
       transform="matrix(0.35277777,0,0,0.35277777,35.187483,99.254761)">
      <text
         xml:space="preserve"
         style="font-size:8px;line-height:0.9;font-family:'Lucida Sans OT';-inkscape-font-specification:'Lucida Sans OT';text-align:center;writing-mode:lr-tb;direction:ltr;text-anchor:middle;fill:#000000;fill-opacity:1;stroke:none;stroke-width:0.566929;stroke-miterlimit:0;stroke-opacity:1;paint-order:fill markers stroke"
         x="190.53491"
         y="40.334457"
         id="text397-6"><tspan
           sodipodi:role="line"
           id="tspan397-6"
           style="font-weight:normal;font-size:8px;fill:#000000;fill-opacity:1;stroke:none;stroke-width:0.566929;stroke-opacity:1"
           x="190.53491"
           y="40.334457">CO<tspan
   style="font-size:65%;baseline-shift:sub"
   id="tspan399">2</tspan></tspan></text>
    </g>
    <path
       fill-rule="nonzero"
       fill="#badb86"
       fill-opacity="1"
       stroke-width="0.14342"
       stroke-linecap="butt"
       stroke-linejoin="round"
       stroke="#231f20"
       stroke-opacity="1"
       stroke-miterlimit="4"
       d="m 92.804132,124.79765 c 0,0 -0.06947,-2.74963 -0.343982,-3.71324 -0.275637,-0.96136 -3.025271,-2.88633 -4.468437,-2.68016 0,0 2.817983,-0.34398 4.056104,0.68685 l 0.550148,1.16865 c 0,0 -0.06947,-3.43648 -2.543465,-4.74295 0,0 2.199483,0.82467 2.749632,2.06278 0.549032,1.237 0.480684,2.474 0.480684,2.474 0,0 0.06835,-4.26226 1.168648,-6.18611 l -0.686848,6.04942 c 0,0 1.099181,-1.85662 4.1928,-0.68797 0,0 -3.780467,0.27451 -4.330618,1.65045 l -0.06947,3.84882"
       id="path198" />
    <path
       fill-rule="nonzero"
       fill="#badb86"
       fill-opacity="1"
       stroke-width="0.14342"
       stroke-linecap="butt"
       stroke-linejoin="round"
       stroke="#231f20"
       stroke-opacity="1"
       stroke-miterlimit="4"
       d="m 102.4858,124.79765 c 0,0 0.0695,-2.74963 0.34398,-3.71211 0.27452,-0.96249 3.02527,-2.88746 4.46843,-2.68129 0,0 -2.81798,-0.34398 -4.0561,0.68797 l -0.55015,1.16865 c 0,0 0.0695,-3.4376 2.54459,-4.74295 0,0 -2.20061,0.82467 -2.75075,2.06166 -0.55015,1.23812 -0.48069,2.47512 -0.48069,2.47512 0,0 -0.0695,-4.26227 -1.16865,-6.18723 l 0.68685,6.04942 c 0,0 -1.09918,-1.85662 -4.192798,-0.68685 0,0 3.780468,0.27451 4.330618,1.64933 l 0.0683,3.84993"
       id="path200" />
    <rect
       style="fill:#bfb290;fill-opacity:1;stroke:#1f2322;stroke-width:0.12161;stroke-miterlimit:0;paint-order:fill markers stroke"
       id="rect396"
       width="19.760675"
       height="22.211792"
       x="88.081192"
       y="166.84172" />
    <path
       fill-rule="nonzero"
       fill="#e8bf49"
       fill-opacity="1"
       d="m 92.993492,169.3285 c 0.745114,0.0258 3.770382,-0.28908 4.495328,1.23364 0.724943,1.52271 0.21737,3.55301 -1.449889,3.62472 -1.668382,0.0728 -2.756358,-0.43474 -3.916045,-1.95746 -1.159684,-1.52272 -1.232516,-2.97261 0.870606,-2.9009"
       id="path209"
       style="stroke-width:0.28684" />
    <path
       fill="none"
       stroke-width="0.14342"
       stroke-linecap="butt"
       stroke-linejoin="miter"
       stroke="#231f20"
       stroke-opacity="1"
       stroke-miterlimit="4"
       d="m 92.993492,169.3285 c 0.745114,0.0258 3.770382,-0.28908 4.495328,1.23364 0.724943,1.52271 0.21737,3.55301 -1.449889,3.62472 -1.668382,0.0728 -2.756358,-0.43474 -3.916045,-1.95746 -1.159684,-1.52272 -1.232516,-2.97261 0.870606,-2.9009 z m 0,0"
       id="path210" />
    <path
       fill-rule="nonzero"
       fill="#e8bf49"
       fill-opacity="1"
       d="m 82.200496,190.28956 c 2.350344,0.78133 8.429466,2.67113 11.716774,3.90347 3.29047,1.23552 4.72925,8.63274 3.08402,9.25208 -1.64523,0.61618 -11.923212,-1.85168 -12.9491,-2.87757 -1.029077,-1.02908 -5.345439,-9.04564 -6.371332,-10.27798 -1.029072,-1.23234 2.671124,-0.61617 4.519638,0"
       id="path211"
       style="stroke-width:0.813091"
       mask="url(#mask57)"
       transform="matrix(0.35277777,0,0,0.35277777,79.203125,104.50674)" />
    <path
       fill="none"
       stroke-width="0.406545"
       stroke-linecap="butt"
       stroke-linejoin="miter"
       stroke="#231f20"
       stroke-opacity="1"
       stroke-miterlimit="4"
       d="m 82.200496,190.28956 c 2.350344,0.78133 8.429466,2.67113 11.716774,3.90347 3.29047,1.23552 4.72925,8.63274 3.08402,9.25208 -1.64523,0.61618 -11.923212,-1.85168 -12.9491,-2.87757 -1.029077,-1.02908 -5.345439,-9.04564 -6.371332,-10.27798 -1.029072,-1.23234 2.671124,-0.61617 4.519638,0 z m 0,0"
       id="path212"
       mask="url(#mask56)"
       transform="matrix(0.35277777,0,0,0.35277777,79.203125,104.50674)" />
    <path
       fill-rule="nonzero"
       fill="#e6a247"
       fill-opacity="1"
       d="m 102.47379,179.91358 c 0.75632,0.1972 1.81292,0.72606 2.46503,1.23252 0.65324,0.50757 -0.72494,1.08798 -1.66726,1.01514 -0.94231,-0.0717 -2.53786,-0.36191 -2.9726,-1.01514 -0.434744,-0.65212 0.50757,-1.66726 2.17483,-1.23252"
       id="path213"
       style="stroke-width:0.28684" />
    <path
       fill="none"
       stroke-width="0.14342"
       stroke-linecap="butt"
       stroke-linejoin="miter"
       stroke="#231f20"
       stroke-opacity="1"
       stroke-miterlimit="4"
       d="m 102.47379,179.91358 c 0.75632,0.1972 1.81292,0.72606 2.46503,1.23252 0.65324,0.50757 -0.72494,1.08798 -1.66726,1.01514 -0.94231,-0.0717 -2.53786,-0.36191 -2.9726,-1.01514 -0.434744,-0.65212 0.50757,-1.66726 2.17483,-1.23252 z m 0,0"
       id="path214" />
    <path
       fill-rule="nonzero"
       fill="#e6a247"
       fill-opacity="1"
       d="m 90.292038,182.45145 c 0,0 1.81292,0.8706 2.683527,1.66837 0.869484,0.79666 1.957461,1.52272 2.174832,2.31938 0.21737,0.79777 -2.609573,-0.50758 -3.045439,-0.86949 -0.434741,-0.36303 -2.899775,-1.1608 -3.117146,-2.10312 -0.218492,-0.94232 1.304226,-1.01514 1.304226,-1.01514"
       id="path215"
       style="stroke-width:0.28684" />
    <path
       fill="none"
       stroke-width="0.14342"
       stroke-linecap="butt"
       stroke-linejoin="miter"
       stroke="#231f20"
       stroke-opacity="1"
       stroke-miterlimit="4"
       d="m 90.292038,182.45145 c 0,0 1.81292,0.8706 2.683527,1.66837 0.869484,0.79666 1.957461,1.52272 2.174832,2.31938 0.21737,0.79777 -2.609573,-0.50758 -3.045439,-0.86949 -0.434741,-0.36303 -2.899775,-1.1608 -3.117146,-2.10312 -0.218492,-0.94232 1.304226,-1.01514 1.304226,-1.01514 z m 0,0"
       id="path216" />
    <path
       fill-rule="nonzero"
       fill="#d0ae87"
       fill-opacity="1"
       d="m 71.512801,229.16864 c 0.24774,-1.22599 11.100589,2.05496 14.594345,4.51964 3.493748,2.46786 3.084024,6.16805 1.23234,5.139 -1.848505,-1.0259 -8.836008,-3.28731 -10.274796,-4.10993 -1.438796,-0.82262 -5.755162,-4.52281 -5.551889,-5.54871"
       id="path219"
       style="stroke-width:0.813091"
       mask="url(#mask55)"
       transform="matrix(0.35277777,0,0,0.35277777,79.203125,104.50674)" />
    <path
       fill="none"
       stroke-width="0.406545"
       stroke-linecap="butt"
       stroke-linejoin="miter"
       stroke="#231f20"
       stroke-opacity="1"
       stroke-miterlimit="4"
       d="m 71.512801,229.16864 c 0.24774,-1.22599 11.100589,2.05496 14.594345,4.51964 3.493748,2.46786 3.084024,6.16805 1.23234,5.139 -1.848505,-1.0259 -8.836008,-3.28731 -10.274796,-4.10993 -1.438796,-0.82262 -5.755162,-4.52281 -5.551889,-5.54871 z m 0,0"
       id="path220"
       mask="url(#mask54)"
       transform="matrix(0.35277777,0,0,0.35277777,79.203125,104.50674)" />
    <rect
       style="fill:#d0ae87;fill-opacity:1;stroke:#1f2322;stroke-width:0.11633;stroke-miterlimit:0;paint-order:fill markers stroke"
       id="rect397"
       width="19.753593"
       height="29.202959"
       x="88.079842"
       y="137.65012" />
    <rect
       style="fill:#7f6c56;fill-opacity:1;stroke:#1f2322;stroke-width:0.0712512;stroke-miterlimit:0;paint-order:fill markers stroke"
       id="rect397-4"
       width="19.753593"
       height="9.2188711"
       x="88.062012"
       y="128.74501" />
    <rect
       style="fill:#8c4820;fill-opacity:1;stroke:#1f2322;stroke-width:0.0500073;stroke-miterlimit:0;paint-order:fill markers stroke"
       id="rect397-4-3"
       width="19.753593"
       height="4.5380898"
       x="88.053612"
       y="124.40056" />
    <path
       fill-rule="nonzero"
       fill="#f0b692"
       fill-opacity="1"
       d="m 94.964398,146.22329 c 0.491888,-0.8426 2.175953,0.29019 1.740091,1.23251 -0.434741,0.94232 -2.247664,-0.36191 -1.740091,-1.23251"
       id="path227"
       style="stroke-width:0.28684" />
    <path
       fill="none"
       stroke-width="0.14342"
       stroke-linecap="butt"
       stroke-linejoin="miter"
       stroke="#231f20"
       stroke-opacity="1"
       stroke-miterlimit="4"
       d="m 94.964398,146.22329 c 0.491888,-0.8426 2.175953,0.29019 1.740091,1.23251 -0.434741,0.94232 -2.247664,-0.36191 -1.740091,-1.23251 z m 0,0"
       id="path228" />
    <path
       fill-rule="nonzero"
       fill="#f0b692"
       fill-opacity="1"
       d="m 102.50915,145.91292 c 1.29191,-0.67228 1.95746,2.3205 0.94232,2.6107 -1.01515,0.2902 -2.75524,-1.66726 -0.94232,-2.6107"
       id="path229"
       style="stroke-width:0.28684" />
    <path
       fill="none"
       stroke-width="0.14342"
       stroke-linecap="butt"
       stroke-linejoin="miter"
       stroke="#231f20"
       stroke-opacity="1"
       stroke-miterlimit="4"
       d="m 102.50915,145.91292 c 1.29191,-0.67228 1.95746,2.3205 0.94232,2.6107 -1.01515,0.2902 -2.75524,-1.66726 -0.94232,-2.6107 z m 0,0"
       id="path230" />
    <path
       fill-rule="nonzero"
       fill="#f3db9c"
       fill-opacity="1"
       d="m 100.40316,158.11484 c 0.80114,-0.36976 2.53787,0.50757 2.97261,0.94231 0.43474,0.43474 -1.95746,1.44989 -2.82807,1.01514 -0.869482,-0.43474 -1.086853,-1.52272 -0.14454,-1.95745"
       id="path231"
       style="stroke-width:0.28684" />
    <path
       fill="none"
       stroke-width="0.14342"
       stroke-linecap="butt"
       stroke-linejoin="miter"
       stroke="#231f20"
       stroke-opacity="1"
       stroke-miterlimit="4"
       d="m 100.40316,158.11484 c 0.80114,-0.36976 2.53787,0.50757 2.97261,0.94231 0.43474,0.43474 -1.95746,1.44989 -2.82807,1.01514 -0.869482,-0.43474 -1.086853,-1.52272 -0.14454,-1.95745 z m 0,0"
       id="path232" />
    <path
       fill-rule="nonzero"
       fill="#bfb290"
       fill-opacity="1"
       d="m 88.829504,142.75184 c 0.103084,-0.42914 2.393328,0.2902 1.957462,0.87061 -0.434742,0.5804 -2.465032,1.23251 -1.957462,-0.87061"
       id="path239"
       style="stroke-width:0.28684" />
    <path
       fill="none"
       stroke-width="0.14342"
       stroke-linecap="butt"
       stroke-linejoin="miter"
       stroke="#231f20"
       stroke-opacity="1"
       stroke-miterlimit="4"
       d="m 88.829504,142.75184 c 0.103084,-0.42914 2.393328,0.2902 1.957462,0.87061 -0.434742,0.5804 -2.465032,1.23251 -1.957462,-0.87061 z m 0,0"
       id="path240" />
    <path
       fill="none"
       stroke-width="0.21513"
       stroke-linecap="round"
       stroke-linejoin="miter"
       stroke="#8c4820"
       stroke-opacity="1"
       stroke-miterlimit="4"
       d="m 92.470232,127.63468 c -0.05154,0.74848 0.116529,1.3793 0.112049,2.12329 -0.0056,0.82579 -0.445948,1.65046 -0.340623,2.46392 0.149022,1.15296 0.788811,1.83085 0.681245,3.10034 -0.07619,0.89302 -0.164709,1.74009 -0.173673,2.64879 -0.01681,1.74681 -0.770883,3.20791 -0.614019,5.02643 0.06275,0.72158 0.07507,1.15633 -0.136697,1.84317 -0.149021,0.48517 -0.345103,0.98042 -0.588246,1.45662 -0.160226,0.31372 -0.611776,0.76864 -0.630825,1.12047 -0.04594,0.84035 0.365274,0.24314 0.534464,0.88069 0.504211,1.89695 -0.844834,4.27571 -0.854919,6.25334 -0.0078,1.55409 -0.179275,3.07009 -0.441465,4.60513 -0.113167,0.66556 -0.851557,2.02245 0.106444,1.99444"
       id="path241" />
    <path
       fill="none"
       stroke-width="0.21513"
       stroke-linecap="round"
       stroke-linejoin="miter"
       stroke="#8c4820"
       stroke-opacity="1"
       stroke-miterlimit="4"
       d="m 91.085332,147.93088 c 1.880147,1.20114 1.449887,5.01971 1.607876,6.88417 0.119887,1.41179 0.277876,2.79557 0.751834,4.15358 0.254347,0.72495 0.609536,2.1894 1.148483,2.65104"
       id="path242" />
    <path
       fill="none"
       stroke-width="0.21513"
       stroke-linecap="round"
       stroke-linejoin="miter"
       stroke="#8c4820"
       stroke-opacity="1"
       stroke-miterlimit="4"
       d="m 92.693208,154.69292 c 1.005059,0.12213 1.568658,1.08125 2.515455,1.34568 0.761919,0.21289 1.26389,0.0157 1.842051,0.88854"
       id="path243" />
    <path
       fill="none"
       stroke-width="0.21513"
       stroke-linecap="round"
       stroke-linejoin="miter"
       stroke="#8c4820"
       stroke-opacity="1"
       stroke-miterlimit="4"
       d="m 91.319509,149.77742 c -0.815702,-0.15799 -1.483501,0.82354 -2.122168,1.22915"
       id="path244" />
    <path
       fill="none"
       stroke-width="0.21513"
       stroke-linecap="round"
       stroke-linejoin="miter"
       stroke="#8c4820"
       stroke-opacity="1"
       stroke-miterlimit="4"
       d="m 91.766578,144.41485 c 2.05158,-0.13895 1.891354,2.30256 2.793332,3.23927"
       id="path245" />
    <path
       fill="none"
       stroke-width="0.21513"
       stroke-linecap="round"
       stroke-linejoin="miter"
       stroke="#8c4820"
       stroke-opacity="1"
       stroke-miterlimit="4"
       d="m 97.162762,129.10922 c -0.400007,1.18994 -0.09972,2.75636 -0.112048,4.01464 -0.01569,1.72553 0.168071,3.15413 0.336142,4.83932 0.113167,1.14512 0.01234,2.51545 -0.420178,3.57206 -0.203923,0.49748 -0.5255,0.91991 -0.703653,1.42748 -0.122131,0.34622 0.101963,1.16641 -0.106447,0.89301"
       id="path246" />
    <path
       fill="none"
       stroke-width="0.21513"
       stroke-linecap="round"
       stroke-linejoin="miter"
       stroke="#8c4820"
       stroke-opacity="1"
       stroke-miterlimit="4"
       d="m 96.939787,141.73356 c 1.210108,1.64821 1.102543,4.04041 1.226917,5.91272 0.09972,1.52048 0.545667,2.88409 1.149601,4.25443 0.370876,0.84371 1.500315,2.43366 1.532805,3.0163"
       id="path247" />
    <path
       fill="none"
       stroke-width="0.21513"
       stroke-linecap="round"
       stroke-linejoin="miter"
       stroke="#8c4820"
       stroke-opacity="1"
       stroke-miterlimit="4"
       d="m 98.279871,148.66031 c -1.422998,1.77818 -3.250484,2.84151 -3.334519,5.348 0.181515,0.0717 0.159107,-0.0482 0.318212,-0.0975"
       id="path248" />
    <path
       fill="none"
       stroke-width="0.21513"
       stroke-linecap="round"
       stroke-linejoin="miter"
       stroke="#8c4820"
       stroke-opacity="1"
       stroke-miterlimit="4"
       d="m 98.274269,148.84742 c 0.736147,3.42528 0.141177,7.24721 0.123249,10.77557 -0.0067,1.23587 0.04146,2.66448 0.106447,3.99111 0.02688,0.57144 0.113167,0.95352 0.303646,1.46333 0.179276,0.47957 0.506454,1.19667 0.589368,1.12272"
       id="path249" />
    <path
       fill="none"
       stroke-width="0.21513"
       stroke-linecap="round"
       stroke-linejoin="miter"
       stroke="#8c4820"
       stroke-opacity="1"
       stroke-miterlimit="4"
       d="m 98.503965,164.86006 c -0.45155,0.27452 -0.82915,0.67341 -0.783209,1.22916"
       id="path250" />
    <path
       fill="none"
       stroke-width="0.21513"
       stroke-linecap="round"
       stroke-linejoin="miter"
       stroke="#8c4820"
       stroke-opacity="1"
       stroke-miterlimit="4"
       d="m 98.167822,160.83757 c -0.717101,0.0415 -1.555211,1.42973 -1.675101,2.01125"
       id="path251" />
    <path
       fill="none"
       stroke-width="0.21513"
       stroke-linecap="round"
       stroke-linejoin="miter"
       stroke="#8c4820"
       stroke-opacity="1"
       stroke-miterlimit="4"
       d="m 98.391916,157.59718 c 0.569201,0.12437 1.075651,0.50757 1.675104,0.78321"
       id="path252" />
    <path
       fill="none"
       stroke-width="0.21513"
       stroke-linecap="round"
       stroke-linejoin="miter"
       stroke="#8c4820"
       stroke-opacity="1"
       stroke-miterlimit="4"
       d="m 101.96622,160.05548 c 1.08125,0.87509 2.02469,1.58772 3.2404,2.23423"
       id="path253" />
    <path
       fill="none"
       stroke-width="0.21513"
       stroke-linecap="round"
       stroke-linejoin="miter"
       stroke="#8c4820"
       stroke-opacity="1"
       stroke-miterlimit="4"
       d="m 98.391916,153.46376 c -0.659956,0.46724 -1.477899,0.58265 -2.123289,1.11711"
       id="path254" />
    <path
       fill="none"
       stroke-width="0.21513"
       stroke-linecap="round"
       stroke-linejoin="miter"
       stroke="#8c4820"
       stroke-opacity="1"
       stroke-miterlimit="4"
       d="m 96.15994,150.96176 c -0.533342,0.11764 -1.713197,0.1916 -2.12553,0.37983"
       id="path255" />
    <path
       fill="none"
       stroke-width="0.21513"
       stroke-linecap="round"
       stroke-linejoin="miter"
       stroke="#8c4820"
       stroke-opacity="1"
       stroke-miterlimit="4"
       d="m 98.0625,145.7807 c 1.327755,0.91094 2.54459,2.04485 3.5687,3.32667"
       id="path256" />
    <path
       fill="none"
       stroke-width="0.21513"
       stroke-linecap="round"
       stroke-linejoin="miter"
       stroke="#8c4820"
       stroke-opacity="1"
       stroke-miterlimit="4"
       d="m 102.1074,127.85205 c 0.43698,2.89418 0.57592,6.52338 0.11092,9.37834 -0.22521,1.39163 -1.31543,3.61576 -0.67004,4.9211"
       id="path257" />
    <path
       fill="none"
       stroke-width="0.21513"
       stroke-linecap="round"
       stroke-linejoin="miter"
       stroke="#8c4820"
       stroke-opacity="1"
       stroke-miterlimit="4"
       d="m 100.03565,139.96658 c 0.86388,2.34178 0.79217,4.50877 1.03755,6.90658"
       id="path258" />
    <path
       fill="none"
       stroke-width="0.21513"
       stroke-linecap="round"
       stroke-linejoin="miter"
       stroke="#8c4820"
       stroke-opacity="1"
       stroke-miterlimit="4"
       d="m 94.593525,128.55011 c -0.114289,2.96476 0.02913,6.04493 0,9.02763 -0.02578,2.56363 -0.890774,5.0466 -1.008425,7.59006 -0.0012,-0.19496 0.06051,-0.3339 0.114289,-0.52998"
       id="path259" />
    <path
       fill="none"
       stroke-width="0.21513"
       stroke-linecap="round"
       stroke-linejoin="miter"
       stroke="#8c4820"
       stroke-opacity="1"
       stroke-miterlimit="4"
       d="m 105.36348,126.57696 c 0,4.03705 -0.66556,8.0192 -0.67004,12.04057 -0.004,3.71772 0.0538,7.47018 0.44707,11.15092 0.18039,1.69303 0.0807,3.35693 -0.11541,4.82587 0.0381,-0.15799 0.12325,-0.32718 0.003,0.0246"
       id="path260" />
    <path
       fill="none"
       stroke-width="0.21513"
       stroke-linecap="round"
       stroke-linejoin="miter"
       stroke="#8c4820"
       stroke-opacity="1"
       stroke-miterlimit="4"
       d="m 103.41947,154.41504 c 0.68461,1.30087 1.47342,2.7642 2.45719,3.8533"
       id="path261" />
    <path
       fill="none"
       stroke-width="0.21513"
       stroke-linecap="round"
       stroke-linejoin="miter"
       stroke="#8c4820"
       stroke-opacity="1"
       stroke-miterlimit="4"
       d="m 103.41947,156.48119 c -0.29469,0.45043 -0.56696,0.85828 -0.67117,1.34008"
       id="path262" />
    <path
       fill="none"
       stroke-width="0.21513"
       stroke-linecap="round"
       stroke-linejoin="miter"
       stroke="#8c4820"
       stroke-opacity="1"
       stroke-miterlimit="4"
       d="m 103.30742,150.78248 c 0.78769,0.58937 1.70424,2.03141 2.12217,2.90537"
       id="path263" />
    <path
       fill="none"
       stroke-width="0.21513"
       stroke-linecap="round"
       stroke-linejoin="miter"
       stroke="#8c4820"
       stroke-opacity="1"
       stroke-miterlimit="4"
       d="m 102.9724,148.10119 c -0.58825,0.98378 -0.96473,2.14458 -1.78491,2.88297 -0.38096,0.34175 -0.78769,0.34399 -1.0947,0.9412 -0.376477,0.73166 -0.590486,1.83085 -0.906458,2.64543 0.19272,-0.006 -0.07619,1.5821 0.109806,1.46557"
       id="path264" />
    <path
       fill="none"
       stroke-width="0.21513"
       stroke-linecap="round"
       stroke-linejoin="miter"
       stroke="#8c4820"
       stroke-opacity="1"
       stroke-miterlimit="4"
       d="m 102.99593,144.37115 c 1.52048,1.28405 2.11321,2.69361 3.43984,4.06506"
       id="path265" />
    <path
       fill="none"
       stroke-width="0.21513"
       stroke-linecap="round"
       stroke-linejoin="miter"
       stroke="#8c4820"
       stroke-opacity="1"
       stroke-miterlimit="4"
       d="m 103.08445,140.95147 c 0.43586,0.70814 1.99107,2.7967 2.79221,2.34627"
       id="path266" />
    <path
       fill="none"
       stroke-width="0.21513"
       stroke-linecap="round"
       stroke-linejoin="miter"
       stroke="#8c4820"
       stroke-opacity="1"
       stroke-miterlimit="4"
       d="m 103.53039,135.81187 c 0.81459,0.7496 2.85272,3.91829 4.02249,3.35245"
       id="path267" />
    <path
       fill="none"
       stroke-width="0.21513"
       stroke-linecap="round"
       stroke-linejoin="miter"
       stroke="#8c4820"
       stroke-opacity="1"
       stroke-miterlimit="4"
       d="m 100.29112,132.5726 c 0.7776,0.21288 1.60115,0.26891 2.40676,0.52998 0.54903,0.17927 1.02075,0.34622 1.59555,0.56695 0.61962,0.23867 1.02187,0.55912 1.63925,0.86165 0.45827,0.22521 1.06221,0.27451 1.56418,0.27564"
       id="path268"
       sodipodi:nodetypes="ccccc" />
    <path
       fill="none"
       stroke-width="0.21513"
       stroke-linecap="round"
       stroke-linejoin="miter"
       stroke="#8c4820"
       stroke-opacity="1"
       stroke-miterlimit="4"
       d="m 97.162762,132.79557 c -1.101424,0.2958 -2.570359,0.71262 -3.69419,0.93783 -0.199444,0.0392 -0.794414,0.0896 -0.95464,0.1748 -0.178156,0.093 -0.612897,0.56583 -0.768643,0.61065 -0.500852,0.1423 -1.363613,-0.19496 -1.732246,0.17592"
       id="path269" />
    <path
       fill="none"
       stroke-width="0.21513"
       stroke-linecap="round"
       stroke-linejoin="miter"
       stroke="#8c4820"
       stroke-opacity="1"
       stroke-miterlimit="4"
       d="m 94.481476,130.56135 c -0.4762,0.12214 -1.042036,0.19608 -1.536165,0.33502 -0.682364,0.19273 -1.236999,0.72046 -1.923846,0.89638 -0.92439,0.2353 -1.629979,-0.11429 -2.602548,-0.11429"
       id="path270"
       sodipodi:nodetypes="cccc" />
    <path
       fill="none"
       stroke-width="0.21513"
       stroke-linecap="round"
       stroke-linejoin="miter"
       stroke="#8c4820"
       stroke-opacity="1"
       stroke-miterlimit="4"
       d="m 96.939787,131.56641 c 1.158568,1.25493 2.294723,2.46504 3.407353,3.74686 0.50869,0.58712 1.05772,1.03195 1.45549,1.72776 0.30925,0.54007 0.26779,0.9961 0.83475,1.34121"
       id="path271" />
    <path
       fill="none"
       stroke-width="0.21513"
       stroke-linecap="round"
       stroke-linejoin="miter"
       stroke="#8c4820"
       stroke-opacity="1"
       stroke-miterlimit="4"
       d="m 103.41947,139.05228 c 1.45661,1.27957 2.60262,1.6232 4.24523,2.69325"
       id="path272"
       sodipodi:nodetypes="cc" />
    <path
       fill="none"
       stroke-width="0.21513"
       stroke-linecap="round"
       stroke-linejoin="miter"
       stroke="#8c4820"
       stroke-opacity="1"
       stroke-miterlimit="4"
       d="m 107.68062,127.15288 c -0.40786,0.94119 -0.056,2.66784 -0.10981,3.78719 -0.0717,1.48126 -0.32382,2.95468 -0.45267,4.42474 -0.11317,1.30198 0.11204,2.68353 0.23418,3.95974 0.21961,2.30593 0.41569,4.46731 0.33278,6.82143 -0.065,1.84092 -0.14118,3.65384 -0.33951,5.47349"
       id="path273" />
    <path
       fill="none"
       stroke-width="0.21513"
       stroke-linecap="round"
       stroke-linejoin="miter"
       stroke="#8c4820"
       stroke-opacity="1"
       stroke-miterlimit="4"
       d="m 107.82403,155.68341 c -0.50981,1.66278 -0.98489,3.94406 -1.27621,5.60123"
       id="path275" />
    <path
       fill="none"
       stroke-width="0.21513"
       stroke-linecap="round"
       stroke-linejoin="miter"
       stroke="#8c4820"
       stroke-opacity="1"
       stroke-miterlimit="4"
       d="m 107.47078,153.12875 c -0.50981,0.66667 -1.69751,1.79162 -1.78827,2.68128"
       id="path276" />
    <path
       fill="none"
       stroke-width="0.21513"
       stroke-linecap="round"
       stroke-linejoin="miter"
       stroke="#8c4820"
       stroke-opacity="1"
       stroke-miterlimit="4"
       d="m 107.8879,147.20817 c -0.85156,0.74624 -1.30422,1.65718 -2.34514,2.31826 -0.67676,0.42802 -1.44541,0.84596 -2.04262,1.33784 -0.70253,0.57816 -1.42972,1.49807 -2.27904,1.85102 -0.64539,0.26779 -1.299742,0.14902 -1.983228,0.35407 -0.982652,0.29356 -1.529442,1.06556 -2.41013,1.51151"
       id="path278" />
    <path
       fill="none"
       stroke-width="0.21513"
       stroke-linecap="round"
       stroke-linejoin="miter"
       stroke="#8c4820"
       stroke-opacity="1"
       stroke-miterlimit="4"
       d="m 94.609209,138.09875 c -1.73897,1.82525 -4.395602,1.55186 -6.496483,1.95858"
       id="path280" />
    <path
       fill="none"
       stroke-width="0.21513"
       stroke-linecap="round"
       stroke-linejoin="miter"
       stroke="#8c4820"
       stroke-opacity="1"
       stroke-miterlimit="4"
       d="m 90.978886,139.72008 c -0.490764,0.41905 -1.297502,1.36137 -1.412912,2.01348"
       id="path281" />
    <path
       fill="none"
       stroke-width="0.21513"
       stroke-linecap="round"
       stroke-linejoin="miter"
       stroke="#8c4820"
       stroke-opacity="1"
       stroke-miterlimit="4"
       d="m 94.397441,140.14249 c 0.695812,0.0471 1.059964,0.32718 1.648213,0.69693"
       id="path282" />
    <path
       fill="none"
       stroke-width="0.21513"
       stroke-linecap="round"
       stroke-linejoin="miter"
       stroke="#8c4820"
       stroke-opacity="1"
       stroke-miterlimit="4"
       d="m 107.88006,147.19809 c -0.18152,-0.11989 -0.50757,-0.002 -0.63419,-0.11877 -0.65211,-0.60057 -0.94567,-2.52105 -1.92721,-2.10648"
       id="path300"
       sodipodi:nodetypes="ccc" />
    <path
       fill="none"
       stroke-width="0.21513"
       stroke-linecap="round"
       stroke-linejoin="miter"
       stroke="#8c4820"
       stroke-opacity="1"
       stroke-miterlimit="4"
       d="m 104.67887,137.44552 c 0.50534,0.36527 1.10927,0.33278 1.59444,0.63979 0.41457,0.26219 0.71261,0.7664 1.08685,1.09246"
       id="path301"
       sodipodi:nodetypes="ccc" />
    <path
       fill="none"
       stroke-width="0.21513"
       stroke-linecap="round"
       stroke-linejoin="miter"
       stroke="#8c4820"
       stroke-opacity="1"
       stroke-miterlimit="4"
       d="m 103.02058,131.72104 c 0.87733,0.0975 1.33336,0.25211 2.09752,0.55351 0.66444,0.26219 1.2863,0.56472 2.09192,0.17255"
       id="path302"
       sodipodi:nodetypes="ccc" />
    <g
       id="g398"
       transform="matrix(0.18379529,0,0,0.18379529,59.122233,106.69686)">
      <path
         fill-rule="nonzero"
         fill="#f3db9c"
         fill-opacity="1"
         d="m 177.32031,271.96094 c 5.0586,-0.75782 6.06641,6.82422 7.33203,9.85937 1.26563,3.03125 -0.2539,9.85547 -3.03515,10.10938 -2.77735,0.2539 -13.14453,-2.27344 -13.14453,-3.53907 0,-1.26171 -5.8125,-11.6289 -6.31641,-14.66015 -0.50781,-3.03516 4.54687,-4.04297 7.07812,-1.76953 2.52735,2.27343 8.08594,0 8.08594,0"
         id="path217" />
      <path
         fill="none"
         stroke-width="0.5"
         stroke-linecap="butt"
         stroke-linejoin="miter"
         stroke="#231f20"
         stroke-opacity="1"
         stroke-miterlimit="4"
         d="m 177.32031,271.96094 c 5.0586,-0.75782 6.06641,6.82422 7.33203,9.85937 1.26563,3.03125 -0.2539,9.85547 -3.03515,10.10938 -2.77735,0.2539 -13.14453,-2.27344 -13.14453,-3.53907 0,-1.26171 -5.8125,-11.6289 -6.31641,-14.66015 -0.50781,-3.03516 4.54687,-4.04297 7.07812,-1.76953 2.52735,2.27343 8.08594,0 8.08594,0 z m 0,0"
         id="path218" />
    </g>
    <path
       style="fill:none;fill-opacity:1;stroke:#000000;stroke-width:0.75;stroke-miterlimit:0;stroke-dasharray:none;stroke-opacity:1;marker-end:url(#Triangle);paint-order:fill markers stroke"
       d="m 57.895589,15.189706 c -1.698174,-0.602748 -3.573579,-0.695973 -5.323158,-0.264613 -1.74958,0.43136 -3.366713,1.385675 -4.590078,2.708731 -1.426618,1.542872 -2.304727,3.58297 -2.444665,5.67966 -0.139938,2.096691 0.459266,4.235388 1.668194,5.954163"
       id="path399"
       inkscape:path-effect="#path-effect399"
       inkscape:original-d="m 57.895589,15.189706 c -2.989707,0.157353 -6.451471,1.814706 -9.913236,2.444118 -3.461765,0.629411 0.482353,6.913235 -0.776471,11.633823"
       transform="matrix(0.35277777,0,0,0.35277777,79.125306,106.76815)"
       sodipodi:nodetypes="csc" />
    <path
       style="fill:none;fill-opacity:1;stroke:#000000;stroke-width:0.75;stroke-miterlimit:0;stroke-dasharray:none;stroke-opacity:1;marker-end:url(#marker401);paint-order:fill markers stroke"
       d="m 71.752941,69.864706 c 1.737653,-1.885024 2.619402,-4.530271 2.360294,-7.080882 C 73.966029,61.33476 73.474626,59.946794 73.031153,58.559427 72.58768,57.17206 72.185073,55.74274 72.225,54.286765 c 0.04951,-1.805574 0.772807,-3.515034 1.46838,-5.181985 0.695573,-1.666952 1.385943,-3.397191 1.363973,-5.20331 -0.01865,-1.532987 -0.573297,-3.054267 -1.545702,-4.23952 -0.972405,-1.185254 -2.355987,-2.02646 -3.855782,-2.344285"
       id="path400"
       inkscape:path-effect="#path-effect400"
       inkscape:original-d="m 71.752941,69.864706 c 0.944118,-1.573529 1.416176,-4.563236 2.360294,-7.080882 0.944118,-2.517648 -1.10147,-5.507354 -1.888235,-8.497059 -0.786765,-2.989707 2.202941,-7.080883 2.832353,-10.385295 0.629415,-3.304411 -3.670602,-4.538217 -5.401484,-6.583805"
       transform="matrix(0.35277777,0,0,0.35277777,81.319791,99.74424)"
       sodipodi:nodetypes="csssc" />
  </g>
</svg>
